<svg width="68" height="60" viewBox="0 0 68 60" fill="none" xmlns="http://www.w3.org/2000/svg">
<path d="M29.0894 0.00976563C25.9191 22.5793 15.7377 43.571 0 59.9999H17.6565C30.7979 43.169 39.3442 23.0986 42.3242 1.77526C38.1395 1.18565 33.9548 0.596032 29.7701 0.00976563L29.0927 0.00976563H29.0894Z" fill="#009588"/>
<path d="M54.401 37.0251C34.7623 40.067 16.0813 47.9197 0.0566406 60.0001H25.5119C36.7212 54.5026 48.8248 50.985 61.2821 49.6282C58.7393 45.5612 56.4433 41.3535 54.401 37.0285V37.0251Z" fill="#FCBF12"/>
<path d="M41.4238 1.63462C37.9899 1.1522 34.5594 0.66979 31.1255 0.184026L29.0732 0.0969238C28.7996 2.01988 28.4759 3.92943 28.1055 5.82893C28.3491 15.906 29.8374 25.8725 32.5037 35.5007C36.6451 26.4119 39.6751 16.8072 41.4938 6.88756C41.4304 5.13881 41.4071 3.38671 41.4271 1.63127L41.4238 1.63462Z" fill="#06887B"/>
<path d="M47.347 38.3181C42.9821 39.2628 38.6773 40.4488 34.4492 41.8659C35.8742 46.1037 37.536 50.2645 39.4215 54.3282C43.733 52.9178 48.1313 51.7788 52.5929 50.9178C50.5773 46.8274 48.8287 42.6163 47.347 38.3181Z" fill="#FBB116"/>
<path d="M42.4571 0.0100098L29.1055 0.0100098C29.4959 21.2261 35.4025 41.8895 46.1313 60.0001L62.0125 60.0001C49.7286 42.4121 42.9043 21.5377 42.4571 0.0100098Z" fill="#07BBD3"/>
<path d="M67.9995 8.01342L59.8403 8.01342V0L54.501 0V8.01342L46.3418 8.01342V13.2563L54.501 13.2563V21.2697H59.8403V13.2563L67.9995 13.2563V8.01342Z" fill="#FCBF12"/>
</svg>
